<?xml version="1.0" encoding="UTF-8" standalone="no"?>
<!DOCTYPE svg PUBLIC "-//W3C//DTD SVG 1.1//EN" "http://www.w3.org/Graphics/SVG/1.1/DTD/svg11.dtd">
<svg width="100%" height="100%" viewBox="0 0 1500 1500" version="1.1" xmlns="http://www.w3.org/2000/svg" xmlns:xlink="http://www.w3.org/1999/xlink" xml:space="preserve" xmlns:serif="http://www.serif.com/" style="fill-rule:evenodd;clip-rule:evenodd;stroke-linejoin:round;stroke-miterlimit:2;">
    <g transform="matrix(0.84891,0,0,0.84891,-73.8594,-77.3213)">
        <path d="M1386.25,1661.51C1206.61,1808.04 970.672,1806.39 800.135,1713.67C629.598,1620.95 547.641,1423.92 569.165,1254.21C590.689,1084.5 661.057,989.299 804.274,835.319C947.492,681.339 970.49,581.169 970.49,581.169C970.49,581.169 992.196,630.012 990.54,746.739C988.885,863.466 953.287,905.686 930.194,1007.51C907.1,1109.34 920.173,1132.52 940.869,1181.36C950.63,1204.39 969.409,1224.66 986.533,1239.65C942.932,1158.59 964.217,1053.32 1026.14,950.39C1089.88,844.425 1193.36,687.134 1163.56,457.82C1133.76,228.506 932.806,91.083 932.806,91.083C932.806,91.083 932.591,187.113 919.345,288.939C906.1,390.764 824.143,488.45 643.671,674.716C463.201,860.982 398.628,1025.72 382.899,1173.08C367.17,1320.44 390.35,1546.44 595.656,1721.12C800.963,1895.79 1055.94,1853.57 1055.94,1853.57C1306.27,1809.6 1444.45,1659.65 1510.28,1527.67C1478.44,1572.84 1437.77,1619.49 1386.25,1661.51Z" style="fill:url(#_Linear1);"/>
        <path d="M940.869,1181.36C920.173,1132.52 907.1,1109.34 930.194,1007.51C953.287,905.686 988.885,863.466 990.54,746.739C992.196,630.012 970.49,581.169 970.49,581.169C970.49,581.169 947.492,681.339 804.274,835.319C661.057,989.299 590.689,1084.5 569.165,1254.21C547.641,1423.92 629.598,1620.95 800.135,1713.67C970.672,1806.39 1206.61,1808.04 1386.25,1661.51C1437.77,1619.49 1478.44,1572.84 1510.28,1527.67C1541.12,1465.86 1556.1,1407.99 1559.27,1366.8C1569.21,1237.65 1557.62,1101.89 1440.06,955.357C1322.51,808.828 1335.75,656.503 1335.75,656.503C1272.01,711.141 1225.65,783.992 1214.06,872.572C1202.47,961.152 1214.06,990.126 1233.93,1089.47C1253.8,1188.81 1174.32,1286.5 1098.16,1290.64C1022,1294.77 990.54,1246.76 990.54,1246.76C989.143,1244.41 987.817,1242.04 986.533,1239.65C969.409,1224.66 950.63,1204.39 940.869,1181.36Z" style="fill:url(#_Linear2);"/>
    </g>
    <defs>
        <linearGradient id="_Linear1" x1="0" y1="0" x2="1" y2="0" gradientUnits="userSpaceOnUse" gradientTransform="matrix(-37.2532,1378.37,-1378.37,-37.2532,967.46,537.28)"><stop offset="0" style="stop-color:rgb(243,116,32);stop-opacity:1"/><stop offset="0.7" style="stop-color:rgb(224,54,73);stop-opacity:1"/><stop offset="1" style="stop-color:rgb(211,27,96);stop-opacity:1"/></linearGradient>
        <linearGradient id="_Linear2" x1="0" y1="0" x2="1" y2="0" gradientUnits="userSpaceOnUse" gradientTransform="matrix(-14.9013,789.768,-789.768,-14.9013,1071.2,919.407)"><stop offset="0" style="stop-color:rgb(250,166,26);stop-opacity:1"/><stop offset="1" style="stop-color:rgb(242,105,34);stop-opacity:1"/></linearGradient>
    </defs>
</svg>
