<?xml version="1.0" encoding="UTF-8" standalone="no"?>
<!DOCTYPE svg PUBLIC "-//W3C//DTD SVG 1.1//EN" "http://www.w3.org/Graphics/SVG/1.1/DTD/svg11.dtd">
<svg width="100%" height="100%" viewBox="0 0 1500 1500" version="1.1" xmlns="http://www.w3.org/2000/svg" xmlns:xlink="http://www.w3.org/1999/xlink" xml:space="preserve" xmlns:serif="http://www.serif.com/" style="fill-rule:evenodd;clip-rule:evenodd;stroke-linejoin:round;stroke-miterlimit:2;">
    <g transform="matrix(0.774225,0,0,0.774225,222.484,-0.449017)">
        <path d="M256.532,1671.48C374.674,1785.18 529.385,1844.99 687.322,1845C772.388,1845.01 858.368,1827.67 940.149,1792.06C1150.53,1700.48 1273.67,1512.19 1269.57,1288.37L1269.55,1287.32L1269.58,1286.27C1274.14,1116.59 1172.97,1010.34 1083.71,916.61C1069.82,902.02 1056.69,888.239 1044.16,874.42C1021.44,849.368 1002.45,818.071 987.372,788.004C976.126,829.601 969.783,882.718 981.431,942.04C986.345,967.035 991.094,987.756 995.684,1007.8C1006.41,1054.61 1015.68,1095.04 1017.25,1153.7L1017.27,1154.95C1017.27,1202.59 998.129,1271.91 944.41,1323.56C897.704,1368.47 834.567,1390.66 762.102,1387.86C689.574,1385.01 595.518,1339.88 548.891,1245.45C488.358,1122.88 495.947,998.91 571.447,876.996L572.948,874.724C595.248,843.022 615.839,815.314 634.003,790.869C696.757,706.421 734.635,655.448 754.93,562.336C784.774,425.418 764.95,295.041 700.757,192.968C639.2,356.882 520.435,505.426 408.316,632.166L405.715,634.878C267.988,767.272 159.784,943.572 116.269,1106.48C58.884,1321.3 106.073,1511.38 256.532,1671.48ZM687.237,1938C505.325,1938.02 327.167,1868.93 191.171,1737.6L189.636,1736.04C17.472,1553.37 -38.955,1327.38 26.459,1082.5C94.791,826.679 267.346,639.213 339.922,569.182C463.734,429.103 595.549,262.031 637.078,83.857L656.488,0.58L715.815,62.16C840.042,191.104 888.62,385.486 845.755,582.132C821.194,694.815 773.977,758.361 708.615,846.312C691.01,870.009 671.081,896.826 649.776,927.075C591.334,1022.07 585.771,1110.19 632.238,1204.29C663.807,1268.22 729.376,1293.55 765.744,1294.97C813.148,1296.83 851.537,1283.9 879.979,1256.55C912.467,1225.31 924.143,1182.76 924.308,1155.52C922.929,1106.48 915.434,1073.77 905.074,1028.56C900.541,1008.79 895.406,986.383 890.22,959.957C854.691,779.118 948.007,646.781 951.996,641.235L1008.05,563.332L1034.42,655.613C1034.7,656.594 1064.34,758.293 1113.02,811.969C1124.79,824.951 1137.53,838.335 1151.03,852.505C1242.48,948.545 1367.67,1080.03 1362.54,1287.71C1364.78,1421.47 1327.62,1547.59 1255.05,1652.51C1187.79,1749.73 1091.73,1827.46 977.25,1877.3C883.486,1918.12 784.808,1938 687.237,1938Z" style="fill:url(#_Linear1);"/>
    </g>
    <defs>
        <linearGradient id="_Linear1" x1="0" y1="0" x2="1" y2="0" gradientUnits="userSpaceOnUse" gradientTransform="matrix(1.18633e-14,-1937.42,1937.42,1.18633e-14,681.344,1938)"><stop offset="0" style="stop-color:rgb(211,29,89);stop-opacity:1"/><stop offset="0.2" style="stop-color:rgb(235,41,70);stop-opacity:1"/><stop offset="0.4" style="stop-color:rgb(239,72,46);stop-opacity:1"/><stop offset="0.8" style="stop-color:rgb(243,116,32);stop-opacity:1"/><stop offset="1" style="stop-color:rgb(243,112,33);stop-opacity:1"/></linearGradient>
    </defs>
</svg>
